<?xml version="1.0" encoding="UTF-8" standalone="no"?>
<!DOCTYPE svg PUBLIC "-//W3C//DTD SVG 1.1//EN"
 "http://www.w3.org/Graphics/SVG/1.1/DTD/svg11.dtd">
<!-- Generated by graphviz version 2.38.0 (20140413.2041)
 -->
<!-- Title: com.chaintronics.the78mole.reqtool.editors.IXMLColorConstants Pages: 1 -->
<svg width="214pt" height="226pt"
 viewBox="0.00 0.00 214.00 226.00" xmlns="http://www.w3.org/2000/svg" xmlns:xlink="http://www.w3.org/1999/xlink">
<g id="graph0" class="graph" transform="scale(1 1) rotate(0) translate(4 222)">
<title>com.chaintronics.the78mole.reqtool.editors.IXMLColorConstants</title>
<polygon fill="white" stroke="none" points="-4,4 -4,-222 210,-222 210,4 -4,4"/>
<!-- Node1 -->
<g id="node1" class="node"><title>Node1</title>
<polygon fill="#bfbfbf" stroke="black" points="0,-0.5 0,-68.5 206,-68.5 206,-0.5 0,-0.5"/>
<text text-anchor="start" x="8" y="-56.5" font-family="Helvetica,sans-Serif" font-size="10.00">com.chaintronics.the78mole.reqtool.editors.</text>
<text text-anchor="middle" x="103" y="-45.5" font-family="Helvetica,sans-Serif" font-size="10.00">IXMLColorConstants</text>
<polyline fill="none" stroke="black" points="0,-38.5 206,-38.5 "/>
<text text-anchor="middle" x="103" y="-26.5" font-family="Helvetica,sans-Serif" font-size="10.00"> </text>
<polyline fill="none" stroke="black" points="0,-19.5 206,-19.5 "/>
<text text-anchor="middle" x="103" y="-7.5" font-family="Helvetica,sans-Serif" font-size="10.00"> </text>
</g>
<!-- Node2 -->
<g id="node2" class="node"><title>Node2</title>
<polygon fill="white" stroke="#bfbfbf" points="84,-160.5 84,-217.5 122,-217.5 122,-160.5 84,-160.5"/>
<text text-anchor="middle" x="103" y="-205.5" font-family="Helvetica,sans-Serif" font-size="10.00">RGB</text>
<polyline fill="none" stroke="#bfbfbf" points="84,-198.5 122,-198.5 "/>
<text text-anchor="middle" x="103" y="-186.5" font-family="Helvetica,sans-Serif" font-size="10.00"> </text>
<polyline fill="none" stroke="#bfbfbf" points="84,-179.5 122,-179.5 "/>
<text text-anchor="middle" x="103" y="-167.5" font-family="Helvetica,sans-Serif" font-size="10.00"> </text>
</g>
<!-- Node2&#45;&gt;Node1 -->
<g id="edge1" class="edge"><title>Node2&#45;&gt;Node1</title>
<path fill="none" stroke="#404040" d="M103,-160.383C103,-138.255 103,-106.747 103,-80.9162"/>
<polygon fill="none" stroke="#404040" points="103,-80.7577 99,-74.7578 103,-68.7577 107,-74.7577 103,-80.7577"/>
<text text-anchor="middle" x="145" y="-134" font-family="Helvetica,sans-Serif" font-size="10.00"> +DEFAULT</text>
<text text-anchor="middle" x="145" y="-123" font-family="Helvetica,sans-Serif" font-size="10.00">+PROC_INSTR</text>
<text text-anchor="middle" x="145" y="-112" font-family="Helvetica,sans-Serif" font-size="10.00">+XML_COMMENT</text>
<text text-anchor="middle" x="145" y="-101" font-family="Helvetica,sans-Serif" font-size="10.00">+TAG</text>
<text text-anchor="middle" x="145" y="-90" font-family="Helvetica,sans-Serif" font-size="10.00">+STRING</text>
</g>
</g>
</svg>
