<?xml version="1.0" encoding="UTF-8" standalone="no"?>
<!DOCTYPE svg PUBLIC "-//W3C//DTD SVG 1.1//EN"
 "http://www.w3.org/Graphics/SVG/1.1/DTD/svg11.dtd">
<!-- Generated by graphviz version 2.38.0 (20140413.2041)
 -->
<!-- Title: com.chaintronics.the78mole.reqtool.editors.NonRuleBasedDamagerRepairer.endOfLineOf Pages: 1 -->
<svg width="467pt" height="39pt"
 viewBox="0.00 0.00 467.00 39.00" xmlns="http://www.w3.org/2000/svg" xmlns:xlink="http://www.w3.org/1999/xlink">
<g id="graph0" class="graph" transform="scale(1 1) rotate(0) translate(4 35)">
<title>com.chaintronics.the78mole.reqtool.editors.NonRuleBasedDamagerRepairer.endOfLineOf</title>
<polygon fill="white" stroke="none" points="-4,4 -4,-35 463,-35 463,4 -4,4"/>
<!-- Node1 -->
<g id="node1" class="node"><title>Node1</title>
<polygon fill="#bfbfbf" stroke="black" points="0,-0.5 0,-30.5 217,-30.5 217,-0.5 0,-0.5"/>
<text text-anchor="start" x="8" y="-18.5" font-family="Helvetica,sans-Serif" font-size="10.00">com.chaintronics.the78mole.reqtool.editors.</text>
<text text-anchor="middle" x="108.5" y="-7.5" font-family="Helvetica,sans-Serif" font-size="10.00">NonRuleBasedDamagerRepairer.endOfLineOf</text>
</g>
<!-- Node2 -->
<g id="node2" class="node"><title>Node2</title>
<g id="a_node2"><a xlink:href="../../db/d76/classcom_1_1chaintronics_1_1the78mole_1_1reqtool_1_1editors_1_1NonRuleBasedDamagerRepairer.html#a415c83ab6ed22f7209097cce40fceffd" target="_top" xlink:title="com.chaintronics.the78mole.reqtool.editors.\lNonRuleBasedDamagerRepairer.addRange">
<polygon fill="white" stroke="black" points="253,-0.5 253,-30.5 459,-30.5 459,-0.5 253,-0.5"/>
<text text-anchor="start" x="261" y="-18.5" font-family="Helvetica,sans-Serif" font-size="10.00">com.chaintronics.the78mole.reqtool.editors.</text>
<text text-anchor="middle" x="356" y="-7.5" font-family="Helvetica,sans-Serif" font-size="10.00">NonRuleBasedDamagerRepairer.addRange</text>
</a>
</g>
</g>
<!-- Node1&#45;&gt;Node2 -->
<g id="edge1" class="edge"><title>Node1&#45;&gt;Node2</title>
<path fill="none" stroke="midnightblue" d="M217.18,-15.5C225.606,-15.5 234.129,-15.5 242.586,-15.5"/>
<polygon fill="midnightblue" stroke="midnightblue" points="242.858,-19.0001 252.858,-15.5 242.858,-12.0001 242.858,-19.0001"/>
</g>
</g>
</svg>
