<?xml version="1.0" encoding="UTF-8" standalone="no"?>
<!DOCTYPE svg PUBLIC "-//W3C//DTD SVG 1.1//EN"
 "http://www.w3.org/Graphics/SVG/1.1/DTD/svg11.dtd">
<!-- Generated by graphviz version 2.38.0 (20140413.2041)
 -->
<!-- Title: com.chaintronics.the78mole.reqtool.editors.XMLConfiguration Pages: 1 -->
<svg width="214pt" height="226pt"
 viewBox="0.00 0.00 214.00 226.00" xmlns="http://www.w3.org/2000/svg" xmlns:xlink="http://www.w3.org/1999/xlink">
<g id="graph0" class="graph" transform="scale(1 1) rotate(0) translate(4 222)">
<title>com.chaintronics.the78mole.reqtool.editors.XMLConfiguration</title>
<polygon fill="white" stroke="none" points="-4,4 -4,-222 210,-222 210,4 -4,4"/>
<!-- Node1 -->
<g id="node1" class="node"><title>Node1</title>
<polygon fill="#bfbfbf" stroke="black" points="0,-0.5 0,-123.5 206,-123.5 206,-0.5 0,-0.5"/>
<text text-anchor="start" x="8" y="-111.5" font-family="Helvetica,sans-Serif" font-size="10.00">com.chaintronics.the78mole.reqtool.editors.</text>
<text text-anchor="middle" x="103" y="-100.5" font-family="Helvetica,sans-Serif" font-size="10.00">XMLConfiguration</text>
<polyline fill="none" stroke="black" points="0,-93.5 206,-93.5 "/>
<text text-anchor="middle" x="103" y="-81.5" font-family="Helvetica,sans-Serif" font-size="10.00"> </text>
<polyline fill="none" stroke="black" points="0,-74.5 206,-74.5 "/>
<text text-anchor="start" x="8" y="-62.5" font-family="Helvetica,sans-Serif" font-size="10.00">+ XMLConfiguration()</text>
<text text-anchor="start" x="8" y="-51.5" font-family="Helvetica,sans-Serif" font-size="10.00">+ getConfiguredContentTypes()</text>
<text text-anchor="start" x="8" y="-40.5" font-family="Helvetica,sans-Serif" font-size="10.00">+ getDoubleClickStrategy()</text>
<text text-anchor="start" x="8" y="-29.5" font-family="Helvetica,sans-Serif" font-size="10.00">+ getPresentationReconciler()</text>
<text text-anchor="start" x="8" y="-18.5" font-family="Helvetica,sans-Serif" font-size="10.00"># getXMLScanner()</text>
<text text-anchor="start" x="8" y="-7.5" font-family="Helvetica,sans-Serif" font-size="10.00"># getXMLTagScanner()</text>
</g>
<!-- Node2 -->
<g id="node2" class="node"><title>Node2</title>
<polygon fill="white" stroke="#bfbfbf" points="35.5,-160.5 35.5,-217.5 170.5,-217.5 170.5,-160.5 35.5,-160.5"/>
<text text-anchor="middle" x="103" y="-205.5" font-family="Helvetica,sans-Serif" font-size="10.00">SourceViewerConfiguration</text>
<polyline fill="none" stroke="#bfbfbf" points="35.5,-198.5 170.5,-198.5 "/>
<text text-anchor="middle" x="103" y="-186.5" font-family="Helvetica,sans-Serif" font-size="10.00"> </text>
<polyline fill="none" stroke="#bfbfbf" points="35.5,-179.5 170.5,-179.5 "/>
<text text-anchor="middle" x="103" y="-167.5" font-family="Helvetica,sans-Serif" font-size="10.00"> </text>
</g>
<!-- Node2&#45;&gt;Node1 -->
<g id="edge1" class="edge"><title>Node2&#45;&gt;Node1</title>
<path fill="none" stroke="midnightblue" d="M103,-150.099C103,-141.739 103,-132.68 103,-123.672"/>
<polygon fill="none" stroke="midnightblue" points="99.5001,-150.258 103,-160.258 106.5,-150.258 99.5001,-150.258"/>
</g>
</g>
</svg>
