<?xml version="1.0" encoding="UTF-8" standalone="no"?>
<!DOCTYPE svg PUBLIC "-//W3C//DTD SVG 1.1//EN"
 "http://www.w3.org/Graphics/SVG/1.1/DTD/svg11.dtd">
<!-- Generated by graphviz version 2.38.0 (20140413.2041)
 -->
<!-- Title: RuleBasedScanner Pages: 1 -->
<svg width="438pt" height="171pt"
 viewBox="0.00 0.00 438.00 171.00" xmlns="http://www.w3.org/2000/svg" xmlns:xlink="http://www.w3.org/1999/xlink">
<g id="graph0" class="graph" transform="scale(1 1) rotate(0) translate(4 167)">
<title>RuleBasedScanner</title>
<polygon fill="white" stroke="none" points="-4,4 -4,-167 434,-167 434,4 -4,4"/>
<!-- Node1 -->
<g id="node1" class="node"><title>Node1</title>
<polygon fill="#bfbfbf" stroke="black" points="164.5,-105.5 164.5,-162.5 265.5,-162.5 265.5,-105.5 164.5,-105.5"/>
<text text-anchor="middle" x="215" y="-150.5" font-family="Helvetica,sans-Serif" font-size="10.00">RuleBasedScanner</text>
<polyline fill="none" stroke="black" points="164.5,-143.5 265.5,-143.5 "/>
<text text-anchor="middle" x="215" y="-131.5" font-family="Helvetica,sans-Serif" font-size="10.00"> </text>
<polyline fill="none" stroke="black" points="164.5,-124.5 265.5,-124.5 "/>
<text text-anchor="middle" x="215" y="-112.5" font-family="Helvetica,sans-Serif" font-size="10.00"> </text>
</g>
<!-- Node2 -->
<g id="node2" class="node"><title>Node2</title>
<g id="a_node2"><a xlink:href="$dd/dfc/classcom_1_1chaintronics_1_1the78mole_1_1reqtool_1_1editors_1_1XMLScanner.html" xlink:title="{com.chaintronics.the78mole.reqtool.editors.\lXMLScanner\n||+ XMLScanner()\l}">
<polygon fill="white" stroke="black" points="0,-0.5 0,-68.5 206,-68.5 206,-0.5 0,-0.5"/>
<text text-anchor="start" x="8" y="-56.5" font-family="Helvetica,sans-Serif" font-size="10.00">com.chaintronics.the78mole.reqtool.editors.</text>
<text text-anchor="middle" x="103" y="-45.5" font-family="Helvetica,sans-Serif" font-size="10.00">XMLScanner</text>
<polyline fill="none" stroke="black" points="0,-38.5 206,-38.5 "/>
<text text-anchor="middle" x="103" y="-26.5" font-family="Helvetica,sans-Serif" font-size="10.00"> </text>
<polyline fill="none" stroke="black" points="0,-19.5 206,-19.5 "/>
<text text-anchor="start" x="8" y="-7.5" font-family="Helvetica,sans-Serif" font-size="10.00">+ XMLScanner()</text>
</a>
</g>
</g>
<!-- Node1&#45;&gt;Node2 -->
<g id="edge1" class="edge"><title>Node1&#45;&gt;Node2</title>
<path fill="none" stroke="midnightblue" d="M175.652,-98.7459C164.481,-89.0218 152.339,-78.4513 141.236,-68.7855"/>
<polygon fill="none" stroke="midnightblue" points="173.364,-101.395 183.205,-105.321 177.961,-96.1154 173.364,-101.395"/>
</g>
<!-- Node3 -->
<g id="node3" class="node"><title>Node3</title>
<g id="a_node3"><a xlink:href="$d1/d4d/classcom_1_1chaintronics_1_1the78mole_1_1reqtool_1_1editors_1_1XMLTagScanner.html" xlink:title="{com.chaintronics.the78mole.reqtool.editors.\lXMLTagScanner\n||+ XMLTagScanner()\l}">
<polygon fill="white" stroke="black" points="224,-0.5 224,-68.5 430,-68.5 430,-0.5 224,-0.5"/>
<text text-anchor="start" x="232" y="-56.5" font-family="Helvetica,sans-Serif" font-size="10.00">com.chaintronics.the78mole.reqtool.editors.</text>
<text text-anchor="middle" x="327" y="-45.5" font-family="Helvetica,sans-Serif" font-size="10.00">XMLTagScanner</text>
<polyline fill="none" stroke="black" points="224,-38.5 430,-38.5 "/>
<text text-anchor="middle" x="327" y="-26.5" font-family="Helvetica,sans-Serif" font-size="10.00"> </text>
<polyline fill="none" stroke="black" points="224,-19.5 430,-19.5 "/>
<text text-anchor="start" x="232" y="-7.5" font-family="Helvetica,sans-Serif" font-size="10.00">+ XMLTagScanner()</text>
</a>
</g>
</g>
<!-- Node1&#45;&gt;Node3 -->
<g id="edge2" class="edge"><title>Node1&#45;&gt;Node3</title>
<path fill="none" stroke="midnightblue" d="M254.348,-98.7459C265.519,-89.0218 277.661,-78.4513 288.764,-68.7855"/>
<polygon fill="none" stroke="midnightblue" points="252.039,-96.1154 246.795,-105.321 256.636,-101.395 252.039,-96.1154"/>
</g>
</g>
</svg>
