<?xml version="1.0" encoding="UTF-8" standalone="no"?>
<!DOCTYPE svg PUBLIC "-//W3C//DTD SVG 1.1//EN"
 "http://www.w3.org/Graphics/SVG/1.1/DTD/svg11.dtd">
<!-- Generated by graphviz version 2.38.0 (20140413.2041)
 -->
<!-- Title: com.chaintronics.the78mole.reqtool.editors.NonRuleBasedDamagerRepairer Pages: 1 -->
<svg width="451pt" height="237pt"
 viewBox="0.00 0.00 451.00 237.00" xmlns="http://www.w3.org/2000/svg" xmlns:xlink="http://www.w3.org/1999/xlink">
<g id="graph0" class="graph" transform="scale(1 1) rotate(0) translate(4 233)">
<title>com.chaintronics.the78mole.reqtool.editors.NonRuleBasedDamagerRepairer</title>
<polygon fill="white" stroke="none" points="-4,4 -4,-233 447,-233 447,4 -4,4"/>
<!-- Node1 -->
<g id="node1" class="node"><title>Node1</title>
<polygon fill="#bfbfbf" stroke="black" points="122,-0.5 122,-123.5 328,-123.5 328,-0.5 122,-0.5"/>
<text text-anchor="start" x="130" y="-111.5" font-family="Helvetica,sans-Serif" font-size="10.00">com.chaintronics.the78mole.reqtool.editors.</text>
<text text-anchor="middle" x="225" y="-100.5" font-family="Helvetica,sans-Serif" font-size="10.00">NonRuleBasedDamagerRepairer</text>
<polyline fill="none" stroke="black" points="122,-93.5 328,-93.5 "/>
<text text-anchor="middle" x="225" y="-81.5" font-family="Helvetica,sans-Serif" font-size="10.00"> </text>
<polyline fill="none" stroke="black" points="122,-74.5 328,-74.5 "/>
<text text-anchor="start" x="130" y="-62.5" font-family="Helvetica,sans-Serif" font-size="10.00">+ NonRuleBasedDamagerRepairer()</text>
<text text-anchor="start" x="130" y="-51.5" font-family="Helvetica,sans-Serif" font-size="10.00">+ setDocument()</text>
<text text-anchor="start" x="130" y="-40.5" font-family="Helvetica,sans-Serif" font-size="10.00">+ getDamageRegion()</text>
<text text-anchor="start" x="130" y="-29.5" font-family="Helvetica,sans-Serif" font-size="10.00">+ createPresentation()</text>
<text text-anchor="start" x="130" y="-18.5" font-family="Helvetica,sans-Serif" font-size="10.00"># endOfLineOf()</text>
<text text-anchor="start" x="130" y="-7.5" font-family="Helvetica,sans-Serif" font-size="10.00"># addRange()</text>
</g>
<!-- Node2 -->
<g id="node2" class="node"><title>Node2</title>
<polygon fill="white" stroke="#bfbfbf" points="0,-171.5 0,-228.5 114,-228.5 114,-171.5 0,-171.5"/>
<text text-anchor="middle" x="57" y="-216.5" font-family="Helvetica,sans-Serif" font-size="10.00">IPresentationDamager</text>
<polyline fill="none" stroke="#bfbfbf" points="0,-209.5 114,-209.5 "/>
<text text-anchor="middle" x="57" y="-197.5" font-family="Helvetica,sans-Serif" font-size="10.00"> </text>
<polyline fill="none" stroke="#bfbfbf" points="0,-190.5 114,-190.5 "/>
<text text-anchor="middle" x="57" y="-178.5" font-family="Helvetica,sans-Serif" font-size="10.00"> </text>
</g>
<!-- Node2&#45;&gt;Node1 -->
<g id="edge1" class="edge"><title>Node2&#45;&gt;Node1</title>
<path fill="none" stroke="midnightblue" d="M98.8668,-165.108C114.399,-152.534 132.526,-137.86 150.113,-123.623"/>
<polygon fill="none" stroke="midnightblue" points="96.5676,-162.466 90.9973,-171.478 100.972,-167.907 96.5676,-162.466"/>
</g>
<!-- Node3 -->
<g id="node3" class="node"><title>Node3</title>
<polygon fill="white" stroke="#bfbfbf" points="132.5,-171.5 132.5,-228.5 243.5,-228.5 243.5,-171.5 132.5,-171.5"/>
<text text-anchor="middle" x="188" y="-216.5" font-family="Helvetica,sans-Serif" font-size="10.00">IPresentationRepairer</text>
<polyline fill="none" stroke="#bfbfbf" points="132.5,-209.5 243.5,-209.5 "/>
<text text-anchor="middle" x="188" y="-197.5" font-family="Helvetica,sans-Serif" font-size="10.00"> </text>
<polyline fill="none" stroke="#bfbfbf" points="132.5,-190.5 243.5,-190.5 "/>
<text text-anchor="middle" x="188" y="-178.5" font-family="Helvetica,sans-Serif" font-size="10.00"> </text>
</g>
<!-- Node3&#45;&gt;Node1 -->
<g id="edge2" class="edge"><title>Node3&#45;&gt;Node1</title>
<path fill="none" stroke="midnightblue" d="M198.176,-161.596C201.373,-149.845 204.989,-136.554 208.507,-123.623"/>
<polygon fill="none" stroke="midnightblue" points="194.735,-160.91 195.488,-171.478 201.49,-162.748 194.735,-160.91"/>
</g>
<!-- Node4 -->
<g id="node4" class="node"><title>Node4</title>
<polygon fill="white" stroke="#bfbfbf" points="261.5,-171.5 261.5,-228.5 334.5,-228.5 334.5,-171.5 261.5,-171.5"/>
<text text-anchor="middle" x="298" y="-216.5" font-family="Helvetica,sans-Serif" font-size="10.00">TextAttribute</text>
<polyline fill="none" stroke="#bfbfbf" points="261.5,-209.5 334.5,-209.5 "/>
<text text-anchor="middle" x="298" y="-197.5" font-family="Helvetica,sans-Serif" font-size="10.00"> </text>
<polyline fill="none" stroke="#bfbfbf" points="261.5,-190.5 334.5,-190.5 "/>
<text text-anchor="middle" x="298" y="-178.5" font-family="Helvetica,sans-Serif" font-size="10.00"> </text>
</g>
<!-- Node4&#45;&gt;Node1 -->
<g id="edge3" class="edge"><title>Node4&#45;&gt;Node1</title>
<path fill="none" stroke="#404040" d="M283.227,-171.478C277.376,-160.577 270.353,-147.493 263.242,-134.245"/>
<polygon fill="none" stroke="#404040" points="263.216,-134.196 256.854,-130.802 257.54,-123.623 263.902,-127.018 263.216,-134.196"/>
<text text-anchor="middle" x="323" y="-145" font-family="Helvetica,sans-Serif" font-size="10.00"> #fDefaultTextAttribute</text>
</g>
<!-- Node5 -->
<g id="node5" class="node"><title>Node5</title>
<polygon fill="white" stroke="#bfbfbf" points="370.5,-171.5 370.5,-228.5 435.5,-228.5 435.5,-171.5 370.5,-171.5"/>
<text text-anchor="middle" x="403" y="-216.5" font-family="Helvetica,sans-Serif" font-size="10.00">IDocument</text>
<polyline fill="none" stroke="#bfbfbf" points="370.5,-209.5 435.5,-209.5 "/>
<text text-anchor="middle" x="403" y="-197.5" font-family="Helvetica,sans-Serif" font-size="10.00"> </text>
<polyline fill="none" stroke="#bfbfbf" points="370.5,-190.5 435.5,-190.5 "/>
<text text-anchor="middle" x="403" y="-178.5" font-family="Helvetica,sans-Serif" font-size="10.00"> </text>
</g>
<!-- Node5&#45;&gt;Node1 -->
<g id="edge4" class="edge"><title>Node5&#45;&gt;Node1</title>
<path fill="none" stroke="#404040" d="M394.626,-171.252C390.542,-161.146 384.791,-150.201 377,-142 365.875,-130.288 352.628,-119.99 338.66,-111.032"/>
<polygon fill="none" stroke="#404040" points="338.619,-111.007 331.413,-111.289 328.382,-104.746 335.588,-104.464 338.619,-111.007"/>
<text text-anchor="middle" x="414.5" y="-145" font-family="Helvetica,sans-Serif" font-size="10.00"> #fDocument</text>
</g>
</g>
</svg>
