<?xml version="1.0" encoding="UTF-8" standalone="no"?>
<!DOCTYPE svg PUBLIC "-//W3C//DTD SVG 1.1//EN"
 "http://www.w3.org/Graphics/SVG/1.1/DTD/svg11.dtd">
<!-- Generated by graphviz version 2.38.0 (20140413.2041)
 -->
<!-- Title: com.chaintronics.the78mole.reqtool.editors.NonRuleBasedDamagerRepairer Pages: 1 -->
<svg width="252pt" height="237pt"
 viewBox="0.00 0.00 251.50 237.00" xmlns="http://www.w3.org/2000/svg" xmlns:xlink="http://www.w3.org/1999/xlink">
<g id="graph0" class="graph" transform="scale(1 1) rotate(0) translate(4 233)">
<title>com.chaintronics.the78mole.reqtool.editors.NonRuleBasedDamagerRepairer</title>
<polygon fill="white" stroke="none" points="-4,4 -4,-233 247.5,-233 247.5,4 -4,4"/>
<!-- Node1 -->
<g id="node1" class="node"><title>Node1</title>
<polygon fill="#bfbfbf" stroke="black" points="19,-0.5 19,-134.5 225,-134.5 225,-0.5 19,-0.5"/>
<text text-anchor="start" x="27" y="-122.5" font-family="Helvetica,sans-Serif" font-size="10.00">com.chaintronics.the78mole.reqtool.editors.</text>
<text text-anchor="middle" x="122" y="-111.5" font-family="Helvetica,sans-Serif" font-size="10.00">NonRuleBasedDamagerRepairer</text>
<polyline fill="none" stroke="black" points="19,-104.5 225,-104.5 "/>
<text text-anchor="start" x="27" y="-92.5" font-family="Helvetica,sans-Serif" font-size="10.00"># fDocument</text>
<text text-anchor="start" x="27" y="-81.5" font-family="Helvetica,sans-Serif" font-size="10.00"># fDefaultTextAttribute</text>
<polyline fill="none" stroke="black" points="19,-74.5 225,-74.5 "/>
<text text-anchor="start" x="27" y="-62.5" font-family="Helvetica,sans-Serif" font-size="10.00">+ NonRuleBasedDamagerRepairer()</text>
<text text-anchor="start" x="27" y="-51.5" font-family="Helvetica,sans-Serif" font-size="10.00">+ setDocument()</text>
<text text-anchor="start" x="27" y="-40.5" font-family="Helvetica,sans-Serif" font-size="10.00">+ getDamageRegion()</text>
<text text-anchor="start" x="27" y="-29.5" font-family="Helvetica,sans-Serif" font-size="10.00">+ createPresentation()</text>
<text text-anchor="start" x="27" y="-18.5" font-family="Helvetica,sans-Serif" font-size="10.00"># endOfLineOf()</text>
<text text-anchor="start" x="27" y="-7.5" font-family="Helvetica,sans-Serif" font-size="10.00"># addRange()</text>
</g>
<!-- Node2 -->
<g id="node2" class="node"><title>Node2</title>
<polygon fill="white" stroke="#bfbfbf" points="0,-171.5 0,-228.5 114,-228.5 114,-171.5 0,-171.5"/>
<text text-anchor="middle" x="57" y="-216.5" font-family="Helvetica,sans-Serif" font-size="10.00">IPresentationDamager</text>
<polyline fill="none" stroke="#bfbfbf" points="0,-209.5 114,-209.5 "/>
<text text-anchor="middle" x="57" y="-197.5" font-family="Helvetica,sans-Serif" font-size="10.00"> </text>
<polyline fill="none" stroke="#bfbfbf" points="0,-190.5 114,-190.5 "/>
<text text-anchor="middle" x="57" y="-178.5" font-family="Helvetica,sans-Serif" font-size="10.00"> </text>
</g>
<!-- Node2&#45;&gt;Node1 -->
<g id="edge1" class="edge"><title>Node2&#45;&gt;Node1</title>
<path fill="none" stroke="midnightblue" d="M75.2932,-162.273C79.6167,-153.593 84.3579,-144.074 89.1102,-134.533"/>
<polygon fill="none" stroke="midnightblue" points="72.1104,-160.813 70.7848,-171.324 78.3762,-163.934 72.1104,-160.813"/>
</g>
<!-- Node3 -->
<g id="node3" class="node"><title>Node3</title>
<polygon fill="white" stroke="#bfbfbf" points="132.5,-171.5 132.5,-228.5 243.5,-228.5 243.5,-171.5 132.5,-171.5"/>
<text text-anchor="middle" x="188" y="-216.5" font-family="Helvetica,sans-Serif" font-size="10.00">IPresentationRepairer</text>
<polyline fill="none" stroke="#bfbfbf" points="132.5,-209.5 243.5,-209.5 "/>
<text text-anchor="middle" x="188" y="-197.5" font-family="Helvetica,sans-Serif" font-size="10.00"> </text>
<polyline fill="none" stroke="#bfbfbf" points="132.5,-190.5 243.5,-190.5 "/>
<text text-anchor="middle" x="188" y="-178.5" font-family="Helvetica,sans-Serif" font-size="10.00"> </text>
</g>
<!-- Node3&#45;&gt;Node1 -->
<g id="edge2" class="edge"><title>Node3&#45;&gt;Node1</title>
<path fill="none" stroke="midnightblue" d="M169.425,-162.273C165.035,-153.593 160.221,-144.074 155.396,-134.533"/>
<polygon fill="none" stroke="midnightblue" points="166.367,-163.98 174.003,-171.324 172.613,-160.821 166.367,-163.98"/>
</g>
</g>
</svg>
