<?xml version="1.0" encoding="UTF-8" standalone="no"?>
<!DOCTYPE svg PUBLIC "-//W3C//DTD SVG 1.1//EN"
 "http://www.w3.org/Graphics/SVG/1.1/DTD/svg11.dtd">
<!-- Generated by graphviz version 2.38.0 (20140413.2041)
 -->
<!-- Title: Graphical Class Hierarchy Pages: 1 -->
<svg width="351pt" height="88pt"
 viewBox="0.00 0.00 351.00 88.00" xmlns="http://www.w3.org/2000/svg" xmlns:xlink="http://www.w3.org/1999/xlink">
<g id="graph0" class="graph" transform="scale(1 1) rotate(0) translate(4 84)">
<title>Graphical Class Hierarchy</title>
<polygon fill="white" stroke="none" points="-4,4 -4,-84 347,-84 347,4 -4,4"/>
<!-- Node1 -->
<g id="node1" class="node"><title>Node1</title>
<polygon fill="white" stroke="#bfbfbf" points="0,-30 0,-49 101,-49 101,-30 0,-30"/>
<text text-anchor="middle" x="50.5" y="-37" font-family="Helvetica,sans-Serif" font-size="10.00">RuleBasedScanner</text>
</g>
<!-- Node2 -->
<g id="node2" class="node"><title>Node2</title>
<g id="a_node2"><a xlink:href="dd/dfc/classcom_1_1chaintronics_1_1the78mole_1_1reqtool_1_1editors_1_1XMLScanner.html" target="_top" xlink:title="com.chaintronics.the78mole.reqtool.editors.\lXMLScanner">
<polygon fill="white" stroke="black" points="137,-49.5 137,-79.5 343,-79.5 343,-49.5 137,-49.5"/>
<text text-anchor="start" x="145" y="-67.5" font-family="Helvetica,sans-Serif" font-size="10.00">com.chaintronics.the78mole.reqtool.editors.</text>
<text text-anchor="middle" x="240" y="-56.5" font-family="Helvetica,sans-Serif" font-size="10.00">XMLScanner</text>
</a>
</g>
</g>
<!-- Node1&#45;&gt;Node2 -->
<g id="edge1" class="edge"><title>Node1&#45;&gt;Node2</title>
<path fill="none" stroke="midnightblue" d="M111.367,-47.4823C119.536,-48.5715 128.102,-49.7136 136.765,-50.8687"/>
<polygon fill="midnightblue" stroke="midnightblue" points="111.629,-43.9863 101.254,-46.1339 110.704,-50.9249 111.629,-43.9863"/>
</g>
<!-- Node3 -->
<g id="node3" class="node"><title>Node3</title>
<g id="a_node3"><a xlink:href="d1/d4d/classcom_1_1chaintronics_1_1the78mole_1_1reqtool_1_1editors_1_1XMLTagScanner.html" target="_top" xlink:title="com.chaintronics.the78mole.reqtool.editors.\lXMLTagScanner">
<polygon fill="white" stroke="black" points="137,-0.5 137,-30.5 343,-30.5 343,-0.5 137,-0.5"/>
<text text-anchor="start" x="145" y="-18.5" font-family="Helvetica,sans-Serif" font-size="10.00">com.chaintronics.the78mole.reqtool.editors.</text>
<text text-anchor="middle" x="240" y="-7.5" font-family="Helvetica,sans-Serif" font-size="10.00">XMLTagScanner</text>
</a>
</g>
</g>
<!-- Node1&#45;&gt;Node3 -->
<g id="edge2" class="edge"><title>Node1&#45;&gt;Node3</title>
<path fill="none" stroke="midnightblue" d="M111.367,-31.837C119.536,-30.7913 128.102,-29.6949 136.765,-28.586"/>
<polygon fill="midnightblue" stroke="midnightblue" points="110.729,-28.39 101.254,-33.1315 111.618,-35.3334 110.729,-28.39"/>
</g>
</g>
</svg>
