<?xml version="1.0" encoding="UTF-8" standalone="no"?>
<!DOCTYPE svg PUBLIC "-//W3C//DTD SVG 1.1//EN"
 "http://www.w3.org/Graphics/SVG/1.1/DTD/svg11.dtd">
<!-- Generated by graphviz version 2.38.0 (20140413.2041)
 -->
<!-- Title: Graphical Class Hierarchy Pages: 1 -->
<svg width="364pt" height="66pt"
 viewBox="0.00 0.00 364.00 66.00" xmlns="http://www.w3.org/2000/svg" xmlns:xlink="http://www.w3.org/1999/xlink">
<g id="graph0" class="graph" transform="scale(1 1) rotate(0) translate(4 62)">
<title>Graphical Class Hierarchy</title>
<polygon fill="white" stroke="none" points="-4,4 -4,-62 360,-62 360,4 -4,4"/>
<!-- Node1 -->
<g id="node1" class="node"><title>Node1</title>
<polygon fill="white" stroke="#bfbfbf" points="0,-38.5 0,-57.5 114,-57.5 114,-38.5 0,-38.5"/>
<text text-anchor="middle" x="57" y="-45.5" font-family="Helvetica,sans-Serif" font-size="10.00">IPresentationDamager</text>
</g>
<!-- Node2 -->
<g id="node2" class="node"><title>Node2</title>
<g id="a_node2"><a xlink:href="db/d76/classcom_1_1chaintronics_1_1the78mole_1_1reqtool_1_1editors_1_1NonRuleBasedDamagerRepairer.html" target="_top" xlink:title="com.chaintronics.the78mole.reqtool.editors.\lNonRuleBasedDamagerRepairer">
<polygon fill="white" stroke="black" points="150,-14 150,-44 356,-44 356,-14 150,-14"/>
<text text-anchor="start" x="158" y="-32" font-family="Helvetica,sans-Serif" font-size="10.00">com.chaintronics.the78mole.reqtool.editors.</text>
<text text-anchor="middle" x="253" y="-21" font-family="Helvetica,sans-Serif" font-size="10.00">NonRuleBasedDamagerRepairer</text>
</a>
</g>
</g>
<!-- Node1&#45;&gt;Node2 -->
<g id="edge1" class="edge"><title>Node1&#45;&gt;Node2</title>
<path fill="none" stroke="midnightblue" d="M124.122,-41.5241C132.483,-40.7053 141.185,-39.853 149.942,-38.9953"/>
<polygon fill="midnightblue" stroke="midnightblue" points="123.724,-38.0463 114.113,-42.5044 124.406,-45.0129 123.724,-38.0463"/>
</g>
<!-- Node3 -->
<g id="node3" class="node"><title>Node3</title>
<polygon fill="white" stroke="#bfbfbf" points="1.5,-0.5 1.5,-19.5 112.5,-19.5 112.5,-0.5 1.5,-0.5"/>
<text text-anchor="middle" x="57" y="-7.5" font-family="Helvetica,sans-Serif" font-size="10.00">IPresentationRepairer</text>
</g>
<!-- Node3&#45;&gt;Node2 -->
<g id="edge2" class="edge"><title>Node3&#45;&gt;Node2</title>
<path fill="none" stroke="midnightblue" d="M122.612,-16.328C131.35,-17.1838 140.485,-18.0784 149.683,-18.9793"/>
<polygon fill="midnightblue" stroke="midnightblue" points="122.85,-12.8346 112.556,-15.3431 122.167,-19.8013 122.85,-12.8346"/>
</g>
</g>
</svg>
