<?xml version="1.0" encoding="UTF-8" standalone="yes"?><svg xmlns="http://www.w3.org/2000/svg" xmlns:xlink="http://www.w3.org/1999/xlink" height="549px" style="width:404px;height:549px;" version="1.1" viewBox="0 0 404 549" width="404px"><defs><filter height="300%" id="f1" width="300%" x="-1" y="-1"><feGaussianBlur result="blurOut" stdDeviation="2.0"/><feColorMatrix in="blurOut" result="blurOut2" type="matrix" values="0 0 0 0 0 0 0 0 0 0 0 0 0 0 0 0 0 0 .4 0"/><feOffset dx="4.0" dy="4.0" in="blurOut2" result="blurOut3"/><feBlend in="SourceGraphic" in2="blurOut3" mode="normal"/></filter></defs><g><rect fill="#FEFECE" filter="url(#f1)" height="48" style="stroke: #A80036; stroke-width: 1.5;" width="109" x="146.5" y="8"/><ellipse cx="161.5" cy="24" fill="#ADD1B2" rx="11" ry="11" style="stroke: #A80036; stroke-width: 1.0;"/><path d="M164.4688,29.6406 Q163.8906,29.9375 163.25,30.0859 Q162.6094,30.2344 161.9063,30.2344 Q159.4063,30.2344 158.0859,28.5859 Q156.7656,26.9375 156.7656,23.8125 Q156.7656,20.6875 158.0859,19.0313 Q159.4063,17.375 161.9063,17.375 Q162.6094,17.375 163.2578,17.5313 Q163.9063,17.6875 164.4688,17.9844 L164.4688,20.7031 Q163.8438,20.125 163.25,19.8516 Q162.6563,19.5781 162.0313,19.5781 Q160.6875,19.5781 160,20.6484 Q159.3125,21.7188 159.3125,23.8125 Q159.3125,25.9063 160,26.9766 Q160.6875,28.0469 162.0313,28.0469 Q162.6563,28.0469 163.25,27.7734 Q163.8438,27.5 164.4688,26.9219 L164.4688,29.6406 Z "/><text fill="#000000" font-family="sans-serif" font-size="12" lengthAdjust="spacingAndGlyphs" textLength="77" x="175.5" y="28.1543">Project Main</text><line style="stroke: #A80036; stroke-width: 1.5;" x1="147.5" x2="254.5" y1="40" y2="40"/><line style="stroke: #A80036; stroke-width: 1.5;" x1="147.5" x2="254.5" y1="48" y2="48"/><rect fill="#FEFECE" filter="url(#f1)" height="48" style="stroke: #A80036; stroke-width: 1.5;" width="176" x="6" y="133"/><ellipse cx="21" cy="149" fill="#ADD1B2" rx="11" ry="11" style="stroke: #A80036; stroke-width: 1.0;"/><path d="M23.9688,154.6406 Q23.3906,154.9375 22.75,155.0859 Q22.1094,155.2344 21.4063,155.2344 Q18.9063,155.2344 17.5859,153.5859 Q16.2656,151.9375 16.2656,148.8125 Q16.2656,145.6875 17.5859,144.0313 Q18.9063,142.375 21.4063,142.375 Q22.1094,142.375 22.7578,142.5313 Q23.4063,142.6875 23.9688,142.9844 L23.9688,145.7031 Q23.3438,145.125 22.75,144.8516 Q22.1563,144.5781 21.5313,144.5781 Q20.1875,144.5781 19.5,145.6484 Q18.8125,146.7188 18.8125,148.8125 Q18.8125,150.9063 19.5,151.9766 Q20.1875,153.0469 21.5313,153.0469 Q22.1563,153.0469 22.75,152.7734 Q23.3438,152.5 23.9688,151.9219 L23.9688,154.6406 Z "/><text fill="#000000" font-family="sans-serif" font-size="12" lengthAdjust="spacingAndGlyphs" textLength="144" x="35" y="153.1543">Customer Specification</text><line style="stroke: #A80036; stroke-width: 1.5;" x1="7" x2="181" y1="165" y2="165"/><line style="stroke: #A80036; stroke-width: 1.5;" x1="7" x2="181" y1="173" y2="173"/><rect fill="#FEFECE" filter="url(#f1)" height="48" style="stroke: #A80036; stroke-width: 1.5;" width="157" x="123.5" y="242"/><ellipse cx="138.5" cy="258" fill="#ADD1B2" rx="11" ry="11" style="stroke: #A80036; stroke-width: 1.0;"/><path d="M141.4688,263.6406 Q140.8906,263.9375 140.25,264.0859 Q139.6094,264.2344 138.9063,264.2344 Q136.4063,264.2344 135.0859,262.5859 Q133.7656,260.9375 133.7656,257.8125 Q133.7656,254.6875 135.0859,253.0313 Q136.4063,251.375 138.9063,251.375 Q139.6094,251.375 140.2578,251.5313 Q140.9063,251.6875 141.4688,251.9844 L141.4688,254.7031 Q140.8438,254.125 140.25,253.8516 Q139.6563,253.5781 139.0313,253.5781 Q137.6875,253.5781 137,254.6484 Q136.3125,255.7188 136.3125,257.8125 Q136.3125,259.9063 137,260.9766 Q137.6875,262.0469 139.0313,262.0469 Q139.6563,262.0469 140.25,261.7734 Q140.8438,261.5 141.4688,260.9219 L141.4688,263.6406 Z "/><text fill="#000000" font-family="sans-serif" font-size="12" lengthAdjust="spacingAndGlyphs" textLength="125" x="152.5" y="262.1543">Target Specification</text><line style="stroke: #A80036; stroke-width: 1.5;" x1="124.5" x2="279.5" y1="274" y2="274"/><line style="stroke: #A80036; stroke-width: 1.5;" x1="124.5" x2="279.5" y1="282" y2="282"/><rect fill="#FEFECE" filter="url(#f1)" height="48" style="stroke: #A80036; stroke-width: 1.5;" width="161" x="121.5" y="367"/><ellipse cx="136.5" cy="383" fill="#ADD1B2" rx="11" ry="11" style="stroke: #A80036; stroke-width: 1.0;"/><path d="M139.4688,388.6406 Q138.8906,388.9375 138.25,389.0859 Q137.6094,389.2344 136.9063,389.2344 Q134.4063,389.2344 133.0859,387.5859 Q131.7656,385.9375 131.7656,382.8125 Q131.7656,379.6875 133.0859,378.0313 Q134.4063,376.375 136.9063,376.375 Q137.6094,376.375 138.2578,376.5313 Q138.9063,376.6875 139.4688,376.9844 L139.4688,379.7031 Q138.8438,379.125 138.25,378.8516 Q137.6563,378.5781 137.0313,378.5781 Q135.6875,378.5781 135,379.6484 Q134.3125,380.7188 134.3125,382.8125 Q134.3125,384.9063 135,385.9766 Q135.6875,387.0469 137.0313,387.0469 Q137.6563,387.0469 138.25,386.7734 Q138.8438,386.5 139.4688,385.9219 L139.4688,388.6406 Z "/><text fill="#000000" font-family="sans-serif" font-size="12" lengthAdjust="spacingAndGlyphs" textLength="129" x="150.5" y="387.1543">System Specification</text><line style="stroke: #A80036; stroke-width: 1.5;" x1="122.5" x2="281.5" y1="399" y2="399"/><line style="stroke: #A80036; stroke-width: 1.5;" x1="122.5" x2="281.5" y1="407" y2="407"/><rect fill="#FEFECE" filter="url(#f1)" height="48" style="stroke: #A80036; stroke-width: 1.5;" width="171" x="12.5" y="492"/><ellipse cx="27.5" cy="508" fill="#ADD1B2" rx="11" ry="11" style="stroke: #A80036; stroke-width: 1.0;"/><path d="M30.4688,513.6406 Q29.8906,513.9375 29.25,514.0859 Q28.6094,514.2344 27.9063,514.2344 Q25.4063,514.2344 24.0859,512.5859 Q22.7656,510.9375 22.7656,507.8125 Q22.7656,504.6875 24.0859,503.0313 Q25.4063,501.375 27.9063,501.375 Q28.6094,501.375 29.2578,501.5313 Q29.9063,501.6875 30.4688,501.9844 L30.4688,504.7031 Q29.8438,504.125 29.25,503.8516 Q28.6563,503.5781 28.0313,503.5781 Q26.6875,503.5781 26,504.6484 Q25.3125,505.7188 25.3125,507.8125 Q25.3125,509.9063 26,510.9766 Q26.6875,512.0469 28.0313,512.0469 Q28.6563,512.0469 29.25,511.7734 Q29.8438,511.5 30.4688,510.9219 L30.4688,513.6406 Z "/><text fill="#000000" font-family="sans-serif" font-size="12" lengthAdjust="spacingAndGlyphs" textLength="139" x="41.5" y="512.1543">Software Specification</text><line style="stroke: #A80036; stroke-width: 1.5;" x1="13.5" x2="182.5" y1="524" y2="524"/><line style="stroke: #A80036; stroke-width: 1.5;" x1="13.5" x2="182.5" y1="532" y2="532"/><rect fill="#FEFECE" filter="url(#f1)" height="48" style="stroke: #A80036; stroke-width: 1.5;" width="176" x="219" y="492"/><ellipse cx="234" cy="508" fill="#ADD1B2" rx="11" ry="11" style="stroke: #A80036; stroke-width: 1.0;"/><path d="M236.9688,513.6406 Q236.3906,513.9375 235.75,514.0859 Q235.1094,514.2344 234.4063,514.2344 Q231.9063,514.2344 230.5859,512.5859 Q229.2656,510.9375 229.2656,507.8125 Q229.2656,504.6875 230.5859,503.0313 Q231.9063,501.375 234.4063,501.375 Q235.1094,501.375 235.7578,501.5313 Q236.4063,501.6875 236.9688,501.9844 L236.9688,504.7031 Q236.3438,504.125 235.75,503.8516 Q235.1563,503.5781 234.5313,503.5781 Q233.1875,503.5781 232.5,504.6484 Q231.8125,505.7188 231.8125,507.8125 Q231.8125,509.9063 232.5,510.9766 Q233.1875,512.0469 234.5313,512.0469 Q235.1563,512.0469 235.75,511.7734 Q236.3438,511.5 236.9688,510.9219 L236.9688,513.6406 Z "/><text fill="#000000" font-family="sans-serif" font-size="12" lengthAdjust="spacingAndGlyphs" textLength="144" x="248" y="512.1543">Hardware Specification</text><line style="stroke: #A80036; stroke-width: 1.5;" x1="220" x2="394" y1="524" y2="524"/><line style="stroke: #A80036; stroke-width: 1.5;" x1="220" x2="394" y1="532" y2="532"/><path d="M166.486,65.38 C159.838,72.029 153.062,79.108 147,86 C133.812,100.994 120.243,118.973 110.136,132.955 " fill="none" style="stroke: #A80036; stroke-width: 1.0;"/><polygon fill="none" points="176.038,56.017,168.9533,57.3614,167.4694,64.4181,174.5541,63.0738,176.038,56.017" style="stroke: #A80036; stroke-width: 1.0;"/><text fill="#000000" font-family="sans-serif" font-size="13" lengthAdjust="spacingAndGlyphs" textLength="77" x="148" y="99.0669">aggregation</text><text fill="#000000" font-family="sans-serif" font-size="13" lengthAdjust="spacingAndGlyphs" textLength="8" x="160.6165" y="76.1771">1</text><text fill="#000000" font-family="sans-serif" font-size="13" lengthAdjust="spacingAndGlyphs" textLength="8" x="105.2455" y="121.9555">1</text><path d="M223.147,67.744 C225.974,73.637 228.426,79.846 230,86 C244.065,141.005 224.376,207.432 211.54,241.829 " fill="none" style="stroke: #A80036; stroke-width: 1.0;"/><polygon fill="none" points="216.98,56.211,216.2821,63.3883,222.6389,66.7929,223.3368,59.6157,216.98,56.211" style="stroke: #A80036; stroke-width: 1.0;"/><text fill="#000000" font-family="sans-serif" font-size="13" lengthAdjust="spacingAndGlyphs" textLength="77" x="236" y="161.5669">aggregation</text><text fill="#000000" font-family="sans-serif" font-size="13" lengthAdjust="spacingAndGlyphs" textLength="8" x="211.9001" y="76.0236">1</text><text fill="#000000" font-family="sans-serif" font-size="13" lengthAdjust="spacingAndGlyphs" textLength="8" x="204.9596" y="230.7972">1</text><path d="M132.09,195.737 C147.6,211.104 165.034,228.376 178.611,241.828 " fill="none" style="stroke: #A80036; stroke-width: 1.0;"/><polygon fill="none" points="126.715,200.266,117.434,181.217,136.569,190.321,126.715,200.266" style="stroke: #A80036; stroke-width: 1.0;"/><path d="M202,303.214 C202,323.833 202,349.043 202,366.968 " fill="none" style="stroke: #A80036; stroke-width: 1.0;"/><polygon fill="none" points="202,290.135,198,296.135,202,302.135,206,296.135,202,290.135" style="stroke: #A80036; stroke-width: 1.0;"/><text fill="#000000" font-family="sans-serif" font-size="13" lengthAdjust="spacingAndGlyphs" textLength="17" x="203" y="333.0669">ref</text><polygon fill="#000000" points="207,342.1328,210,348.1328,213,342.1328,207,342.1328" style="stroke: #000000; stroke-width: 1.0;"/><text fill="#000000" font-family="sans-serif" font-size="13" lengthAdjust="spacingAndGlyphs" textLength="8" x="193.025" y="309.9291">1</text><text fill="#000000" font-family="sans-serif" font-size="13" lengthAdjust="spacingAndGlyphs" textLength="8" x="192.975" y="355.9718">1</text><path d="M179.079,419.109 C160.618,440.9422 134.951,471.2988 117.474,491.9684 " fill="none" style="stroke: #A80036; stroke-width: 1.0;"/><polygon fill="#A80036" points="182.438,415.135,173.5728,419.4254,179.2099,418.9533,179.682,424.5904,182.438,415.135" style="stroke: #A80036; stroke-width: 1.0;"/><text fill="#000000" font-family="sans-serif" font-size="13" lengthAdjust="spacingAndGlyphs" textLength="24" x="158" y="458.0669">refs</text><polygon fill="#000000" points="165.5,467.1328,168.5,473.1328,171.5,467.1328,165.5,467.1328" style="stroke: #000000; stroke-width: 1.0;"/><text fill="#000000" font-family="sans-serif" font-size="13" lengthAdjust="spacingAndGlyphs" textLength="8" x="168.6948" y="434.9291">1</text><text fill="#000000" font-family="sans-serif" font-size="13" lengthAdjust="spacingAndGlyphs" textLength="8" x="113.4392" y="480.9723">n</text><path d="M225.142,419.109 C243.78,440.9422 269.694,471.2988 287.339,491.9684 " fill="none" style="stroke: #A80036; stroke-width: 1.0;"/><polygon fill="#A80036" points="221.75,415.135,224.5502,424.5774,224.9959,418.9381,230.6352,419.3839,221.75,415.135" style="stroke: #A80036; stroke-width: 1.0;"/><text fill="#000000" font-family="sans-serif" font-size="13" lengthAdjust="spacingAndGlyphs" textLength="24" x="261" y="458.0669">refs</text><polygon fill="#000000" points="268.5,467.1328,271.5,473.1328,274.5,467.1328,268.5,467.1328" style="stroke: #000000; stroke-width: 1.0;"/><text fill="#000000" font-family="sans-serif" font-size="13" lengthAdjust="spacingAndGlyphs" textLength="8" x="217.5891" y="434.9291">1</text><text fill="#000000" font-family="sans-serif" font-size="13" lengthAdjust="spacingAndGlyphs" textLength="8" x="273.2759" y="480.9723">n</text></g></svg>