<?xml version="1.0" encoding="UTF-8" standalone="no"?>
<!DOCTYPE svg PUBLIC "-//W3C//DTD SVG 1.1//EN"
 "http://www.w3.org/Graphics/SVG/1.1/DTD/svg11.dtd">
<!-- Generated by graphviz version 2.38.0 (20140413.2041)
 -->
<!-- Title: com.chaintronics.the78mole.reqtool.editors.XMLPartitionScanner Pages: 1 -->
<svg width="214pt" height="182pt"
 viewBox="0.00 0.00 214.00 182.00" xmlns="http://www.w3.org/2000/svg" xmlns:xlink="http://www.w3.org/1999/xlink">
<g id="graph0" class="graph" transform="scale(1 1) rotate(0) translate(4 178)">
<title>com.chaintronics.the78mole.reqtool.editors.XMLPartitionScanner</title>
<polygon fill="white" stroke="none" points="-4,4 -4,-178 210,-178 210,4 -4,4"/>
<!-- Node1 -->
<g id="node1" class="node"><title>Node1</title>
<polygon fill="#bfbfbf" stroke="black" points="0,-0.5 0,-79.5 206,-79.5 206,-0.5 0,-0.5"/>
<text text-anchor="start" x="8" y="-67.5" font-family="Helvetica,sans-Serif" font-size="10.00">com.chaintronics.the78mole.reqtool.editors.</text>
<text text-anchor="middle" x="103" y="-56.5" font-family="Helvetica,sans-Serif" font-size="10.00">XMLPartitionScanner</text>
<polyline fill="none" stroke="black" points="0,-49.5 206,-49.5 "/>
<text text-anchor="start" x="8" y="-37.5" font-family="Helvetica,sans-Serif" font-size="10.00">+ XML_COMMENT</text>
<text text-anchor="start" x="8" y="-26.5" font-family="Helvetica,sans-Serif" font-size="10.00">+ XML_TAG</text>
<polyline fill="none" stroke="black" points="0,-19.5 206,-19.5 "/>
<text text-anchor="start" x="8" y="-7.5" font-family="Helvetica,sans-Serif" font-size="10.00">+ XMLPartitionScanner()</text>
</g>
<!-- Node2 -->
<g id="node2" class="node"><title>Node2</title>
<polygon fill="white" stroke="#bfbfbf" points="34.5,-116.5 34.5,-173.5 171.5,-173.5 171.5,-116.5 34.5,-116.5"/>
<text text-anchor="middle" x="103" y="-161.5" font-family="Helvetica,sans-Serif" font-size="10.00">RuleBasedPartitionScanner</text>
<polyline fill="none" stroke="#bfbfbf" points="34.5,-154.5 171.5,-154.5 "/>
<text text-anchor="middle" x="103" y="-142.5" font-family="Helvetica,sans-Serif" font-size="10.00"> </text>
<polyline fill="none" stroke="#bfbfbf" points="34.5,-135.5 171.5,-135.5 "/>
<text text-anchor="middle" x="103" y="-123.5" font-family="Helvetica,sans-Serif" font-size="10.00"> </text>
</g>
<!-- Node2&#45;&gt;Node1 -->
<g id="edge1" class="edge"><title>Node2&#45;&gt;Node1</title>
<path fill="none" stroke="midnightblue" d="M103,-106.156C103,-97.4733 103,-88.2318 103,-79.5205"/>
<polygon fill="none" stroke="midnightblue" points="99.5001,-106.398 103,-116.398 106.5,-106.398 99.5001,-106.398"/>
</g>
</g>
</svg>
